<svg width="332" height="221" fill="none" xmlns="http://www.w3.org/2000/svg"><g clip-path="url(#a)"><path d="M123.167 114.188a.55.55 0 0 1-.94-.389v-6.691a.55.55 0 0 1 .94-.389l3.352 3.346a.549.549 0 0 1 0 .777l-3.352 3.346Z" fill="#7A73FF"/></g><g clip-path="url(#b)"><path d="M132.073 114.188a.55.55 0 0 1-.94-.389v-6.691a.55.55 0 0 1 .94-.389l3.352 3.346a.549.549 0 0 1 0 .777l-3.352 3.346Z" fill="#7A73FF"/></g><g clip-path="url(#c)"><path d="M140.98 114.188a.55.55 0 0 1-.94-.389v-6.691a.55.55 0 0 1 .94-.389l3.351 3.346a.547.547 0 0 1 0 .777l-3.351 3.346Z" fill="#7A73FF"/></g><g clip-path="url(#d)"><path d="M149.886 114.188a.55.55 0 0 1-.94-.389v-6.691a.55.55 0 0 1 .94-.389l3.352 3.346a.549.549 0 0 1 0 .777l-3.352 3.346Z" fill="#7A73FF"/></g><g clip-path="url(#e)"><path d="M158.793 114.188a.55.55 0 0 1-.94-.389v-6.691a.55.55 0 0 1 .94-.389l3.351 3.346a.547.547 0 0 1 0 .777l-3.351 3.346Z" fill="#7A73FF"/></g><g clip-path="url(#f)"><path d="M167.699 114.188a.55.55 0 0 1-.94-.389v-6.691a.55.55 0 0 1 .94-.389l3.352 3.346a.549.549 0 0 1 0 .777l-3.352 3.346Z" fill="#7A73FF"/></g><g clip-path="url(#g)"><path d="M176.606 114.188a.55.55 0 0 1-.94-.389v-6.691a.55.55 0 0 1 .94-.389l3.351 3.346a.547.547 0 0 1 0 .777l-3.351 3.346Z" fill="#7A73FF"/></g><g clip-path="url(#h)"><path d="M185.512 114.188a.55.55 0 0 1-.94-.389v-6.691a.55.55 0 0 1 .94-.389l3.352 3.346a.549.549 0 0 1 0 .777l-3.352 3.346Z" fill="#7A73FF"/></g><g clip-path="url(#i)"><path d="M194.419 114.188a.55.55 0 0 1-.94-.389v-6.691a.55.55 0 0 1 .94-.389l3.351 3.346a.547.547 0 0 1 0 .777l-3.351 3.346Z" fill="#7A73FF"/></g><g clip-path="url(#j)"><path d="M203.325 114.188a.55.55 0 0 1-.94-.389v-6.691a.55.55 0 0 1 .94-.389l3.352 3.346a.549.549 0 0 1 0 .777l-3.352 3.346Z" fill="#7A73FF"/></g><g clip-path="url(#k)"><path d="M212.232 114.188a.55.55 0 0 1-.94-.389v-6.691a.55.55 0 0 1 .94-.389l3.351 3.346a.547.547 0 0 1 0 .777l-3.351 3.346Z" fill="#7A73FF"/></g><circle cx="251" cy="110" r="50" fill="#fff"/><path fill-rule="evenodd" clip-rule="evenodd" d="M239.212 92.972a5.995 5.995 0 0 0-5.995 5.994v14.499a5.995 5.995 0 0 0 5.995 5.995h22.066a5.995 5.995 0 0 0 5.995-5.995V98.966a5.995 5.995 0 0 0-5.995-5.994h-22.066Zm-1.738 5.676a1.42 1.42 0 1 0-.001-2.84 1.42 1.42 0 0 0 .001 2.84Zm6.149-1.42a1.419 1.419 0 1 1-2.838 0 1.419 1.419 0 0 1 2.838 0Zm3.311 1.42a1.419 1.419 0 1 0 0-2.838 1.419 1.419 0 0 0 0 2.838Z" fill="#80E9FF"/><path fill-rule="evenodd" clip-rule="evenodd" d="M266.206 103.378c1.687 0 2.298.176 2.915.506s1.1.814 1.43 1.43c.33.617.506 1.229.506 2.915v13.949c0 1.686-.176 2.298-.506 2.915a3.44 3.44 0 0 1-1.43 1.43c-.617.33-1.228.505-2.915.505h-20.57c-1.687 0-2.299-.175-2.916-.505a3.446 3.446 0 0 1-1.43-1.43c-.33-.617-.505-1.229-.505-2.915v-13.949c0-1.686.175-2.298.505-2.915.33-.616.814-1.1 1.43-1.43.617-.33 1.229-.506 2.916-.506h20.57Zm-9.98 5.676c-3.021 0-5.035 1.54-5.035 4.114 0 4.024 5.662 3.371 5.662 5.106 0 .672-.598.889-1.429.889-1.234 0-2.826-.497-4.076-1.161v3.471c1.385.582 2.788.825 4.072.825 3.097 0 5.231-1.493 5.231-4.11 0-4.334-5.693-3.557-5.693-5.193 0-.567.484-.787 1.265-.787 1.132 0 2.571.338 3.704.935v-3.423c-1.234-.481-2.467-.666-3.701-.666Z" fill="#7A73FF"/><path fill-rule="evenodd" clip-rule="evenodd" d="M267.273 103.41a15.468 15.468 0 0 0-1.067-.032h-20.57c-1.687 0-2.299.176-2.916.506-.616.33-1.1.814-1.43 1.43-.33.617-.505 1.229-.505 2.915v11.231h10.563v-1.458c1.25.664 2.842 1.161 4.076 1.161.831 0 1.429-.217 1.429-.889 0-.688-.89-1-1.964-1.378-1.635-.574-3.698-1.299-3.698-3.728 0-2.574 2.014-4.114 5.035-4.114 1.234 0 2.467.185 3.701.666v3.423c-1.133-.597-2.572-.935-3.704-.935-.781 0-1.265.22-1.265.787 0 .623.824.896 1.846 1.234 1.662.551 3.847 1.274 3.847 3.959 0 .46-.066.884-.191 1.272h.818a5.994 5.994 0 0 0 5.995-5.994V103.41Z" fill="#0048E5"/><circle cx="82" cy="110" r="50" fill="#fff"/><path fill-rule="evenodd" clip-rule="evenodd" d="M81.7 94.8c9.72 0 17.6 7.88 17.6 17.6 0 5.596-2.611 10.582-6.682 13.805-.976-3.642-5.493-6.394-10.918-6.394-5.425 0-9.942 2.752-10.92 6.393A17.567 17.567 0 0 1 64.1 112.4c0-9.72 7.88-17.6 17.6-17.6Zm0 11a5.5 5.5 0 1 0 0 11 5.5 5.5 0 0 0 0-11Z" fill="#80E9FF"/><path fill-rule="evenodd" clip-rule="evenodd" d="M97.04 88.537c1.146.76 4.169 2.548 7.672 2.9.654.065 1.188.592 1.188 1.25v4.86c0 9.701-8.103 13.75-9.35 13.75-1.246 0-9.35-4.049-9.35-13.75v-4.86c0-.658.534-1.185 1.188-1.25 3.503-.352 6.527-2.14 7.672-2.9a.89.89 0 0 1 .98 0Zm-2.17 13.032 6.533-6.655c.66-.67 1.661.11.836.99 0 0-6.27 7.876-6.6 8.327a1.1 1.1 0 0 1-1.87 0l-2.057-3.52a.913.913 0 0 1 1.43-1.1l1.727 1.958Z" fill="#7A73FF"/><path fill-rule="evenodd" clip-rule="evenodd" d="M99.156 110.137c-1.22.788-2.228 1.16-2.605 1.16-1.247 0-9.35-4.049-9.35-13.75v-1.87a17.627 17.627 0 0 1 8.056 5.498l-.387.394-1.727-1.958a.913.913 0 0 0-1.43 1.1l2.057 3.52a1.1 1.1 0 0 0 1.87 0c.072-.099.433-.559.952-1.215a17.483 17.483 0 0 1 2.564 7.121Z" fill="#0048E5"/><defs><clipPath id="a"><path fill="#fff" transform="translate(120 106)" d="M0 0h8.907v8.907H0z"/></clipPath><clipPath id="b"><path fill="#fff" transform="translate(128.907 106)" d="M0 0h8.907v8.907H0z"/></clipPath><clipPath id="c"><path fill="#fff" transform="translate(137.813 106)" d="M0 0h8.907v8.907H0z"/></clipPath><clipPath id="d"><path fill="#fff" transform="translate(146.72 106)" d="M0 0h8.907v8.907H0z"/></clipPath><clipPath id="e"><path fill="#fff" transform="translate(155.626 106)" d="M0 0h8.907v8.907H0z"/></clipPath><clipPath id="f"><path fill="#fff" transform="translate(164.533 106)" d="M0 0h8.907v8.907H0z"/></clipPath><clipPath id="g"><path fill="#fff" transform="translate(173.439 106)" d="M0 0h8.907v8.907H0z"/></clipPath><clipPath id="h"><path fill="#fff" transform="translate(182.346 106)" d="M0 0h8.907v8.907H0z"/></clipPath><clipPath id="i"><path fill="#fff" transform="translate(191.252 106)" d="M0 0h8.907v8.907H0z"/></clipPath><clipPath id="j"><path fill="#fff" transform="translate(200.159 106)" d="M0 0h8.907v8.907H0z"/></clipPath><clipPath id="k"><path fill="#fff" transform="translate(209.065 106)" d="M0 0h8.907v8.907H0z"/></clipPath></defs></svg>