<svg width="363" height="254" viewBox="0 0 363 254" fill="none" xmlns="http://www.w3.org/2000/svg">
<g clip-path="url(#clip0_126_8278)">
<ellipse cx="95.8145" cy="203.505" rx="50" ry="50.5051" fill="#0077C5"/>
<path fill-rule="evenodd" clip-rule="evenodd" d="M116.068 209.146C115.938 209.145 115.813 209.091 115.721 208.996C115.628 208.9 115.576 208.77 115.576 208.635C115.581 208.503 115.636 208.379 115.727 208.288C115.819 208.197 115.941 208.146 116.068 208.146C116.195 208.146 116.317 208.197 116.409 208.288C116.501 208.379 116.555 208.503 116.561 208.635C116.561 208.915 116.341 209.146 116.068 209.146V209.146ZM116.068 208.03C115.745 208.03 115.483 208.299 115.483 208.635C115.483 208.971 115.745 209.234 116.068 209.234C116.392 209.234 116.654 208.97 116.654 208.635C116.654 208.299 116.392 208.03 116.068 208.03ZM115.958 208.589V208.395H116.066C116.128 208.395 116.197 208.415 116.197 208.489C116.197 208.571 116.12 208.589 116.053 208.589H115.958ZM116.315 208.491C116.315 208.345 116.194 208.291 116.071 208.291H115.841V208.972H115.958V208.688H116.043L116.197 208.973H116.341L116.163 208.675C116.256 208.654 116.314 208.59 116.314 208.491L116.315 208.491ZM112.631 199.852C112.79 199.856 112.948 199.826 113.096 199.765C113.244 199.704 113.379 199.613 113.493 199.498C113.606 199.382 113.697 199.244 113.758 199.092C113.82 198.94 113.852 198.776 113.852 198.611C113.852 198.446 113.82 198.283 113.758 198.13C113.697 197.978 113.607 197.84 113.493 197.725C113.379 197.609 113.245 197.518 113.097 197.457C112.949 197.396 112.791 197.367 112.632 197.37C112.319 197.376 112.021 197.51 111.801 197.742C111.582 197.974 111.459 198.286 111.459 198.611C111.459 198.936 111.582 199.248 111.801 199.48C112.021 199.712 112.319 199.846 112.632 199.852H112.631ZM109.422 200.924V202.745H111.641V209.147H113.621V202.745H115.84V200.924H109.422ZM92.1495 199.852C92.3066 199.852 92.4622 199.82 92.6073 199.758C92.7524 199.695 92.8843 199.604 92.9954 199.489C93.1065 199.374 93.1946 199.237 93.2547 199.086C93.3149 198.935 93.3458 198.774 93.3458 198.611C93.3458 198.448 93.3149 198.287 93.2547 198.136C93.1946 197.985 93.1065 197.849 92.9954 197.733C92.8843 197.618 92.7524 197.527 92.6073 197.464C92.4622 197.402 92.3066 197.37 92.1495 197.37C91.8365 197.376 91.5383 197.51 91.3192 197.742C91.1 197.974 90.9772 198.286 90.9772 198.611C90.9772 198.936 91.1 199.248 91.3192 199.48C91.5383 199.712 91.8365 199.846 92.1495 199.852ZM88.9401 202.744H91.1594V209.147H93.1387V202.745H95.3585V200.924H88.9406V202.745L88.9401 202.744ZM106.055 209.147H108.035V200.929H106.055V209.147H106.055ZM102.049 205.449C102.049 206.545 101.454 207.674 100.201 207.674C98.931 207.674 98.7166 206.459 98.7166 205.483V200.929H96.7367V206.065C96.7367 207.743 97.5944 209.386 99.6571 209.386C100.828 209.386 101.768 208.65 102.115 207.828H102.148V209.147H104.028V200.929H102.049L102.049 205.449ZM85.0119 200.689C83.8406 200.689 82.9005 201.426 82.5541 202.247H82.5207V200.929H80.6405V209.147H82.6199V204.627C82.6199 203.531 83.2141 202.401 84.4677 202.401C85.7375 202.401 85.9524 203.617 85.9524 204.593V209.147H87.9318V204.01C87.9318 202.333 87.0746 200.689 85.0118 200.689L85.0119 200.689ZM76.6328 209.147H78.6121V200.929H76.6328V209.147Z" fill="white"/>
<circle cx="174.285" cy="81" r="50" fill="black"/>
<path fill-rule="evenodd" clip-rule="evenodd" d="M143.88 78.6512C144.624 78.6512 145.323 78.9525 145.847 79.4997C146.932 80.6313 146.932 82.4727 145.847 83.6042L141.712 87.9175L140.965 87.1386L145.1 82.8251C145.426 82.4856 145.605 82.0335 145.605 81.5518C145.605 81.0703 145.426 80.6183 145.1 80.2789C144.427 79.5772 143.332 79.577 142.659 80.279L137.867 85.2782L137.12 84.499L141.912 79.5001C142.437 78.9527 143.136 78.6514 143.88 78.6512ZM143.502 81.1556L144.245 81.9359L139.475 86.9422C138.953 87.4904 138.258 87.7921 137.518 87.7923C136.777 87.7923 136.082 87.4905 135.56 86.9426L135.188 86.5525L135.931 85.7722L136.303 86.1623C136.973 86.8653 138.062 86.865 138.732 86.1621L143.502 81.1556ZM158.97 78.2755C159.423 78.2755 159.837 78.3565 160.212 78.5184C160.586 78.6804 160.905 78.9069 161.168 79.1984C161.43 79.49 161.634 79.8388 161.78 80.245C161.925 80.6513 161.998 81.0958 161.998 81.5785C161.998 82.0792 161.921 82.531 161.767 82.9343C161.613 83.3377 161.394 83.6864 161.109 83.9807L161.914 84.9788V85.2879H160.891L160.329 84.5639C160.133 84.658 159.923 84.7315 159.7 84.7845C159.476 84.8375 159.236 84.864 158.979 84.864C158.515 84.864 158.097 84.7829 157.725 84.6212C157.353 84.4592 157.037 84.2325 156.777 83.9411C156.517 83.6496 156.316 83.3024 156.174 82.8988C156.031 82.4956 155.96 82.0556 155.96 81.5785C155.96 81.0958 156.031 80.6529 156.174 80.2493C156.316 79.8462 156.519 79.4987 156.782 79.2072C157.044 78.9158 157.361 78.6877 157.733 78.5227C158.105 78.3581 158.518 78.2755 158.97 78.2755ZM164.742 78.2755V82.1611C164.742 82.7408 164.861 83.171 165.101 83.452C165.341 83.733 165.675 83.8733 166.104 83.8733C166.533 83.8733 166.867 83.733 167.107 83.452C167.346 83.171 167.466 82.7408 167.466 82.1611V78.2755H168.519V82.1877C168.519 82.6491 168.464 83.0437 168.352 83.3721C168.24 83.7003 168.082 83.9694 167.876 84.1795C167.67 84.3895 167.416 84.5432 167.115 84.6408C166.814 84.7384 166.477 84.787 166.104 84.787C165.725 84.787 165.386 84.7384 165.089 84.6408C164.79 84.5432 164.538 84.3895 164.332 84.1795C164.126 83.9694 163.967 83.7003 163.856 83.3721C163.744 83.0437 163.689 82.6491 163.689 82.1877V78.2755H164.742ZM152.366 78.1503C152.987 78.1503 153.479 78.3055 153.843 78.616C154.206 78.9267 154.419 79.3422 154.48 79.8627L153.473 79.9514C153.412 79.6852 153.289 79.4782 153.104 79.3304C152.92 79.1825 152.662 79.1085 152.333 79.1085C152.025 79.1085 151.784 79.1839 151.611 79.3348C151.437 79.4857 151.351 79.6795 151.351 79.916C151.351 80.052 151.376 80.1657 151.426 80.2574C151.477 80.3493 151.549 80.4291 151.645 80.497C151.74 80.5651 151.856 80.6257 151.993 80.6788C152.13 80.7321 152.285 80.7886 152.458 80.8475L152.886 80.9895C153.155 81.0782 153.397 81.1713 153.612 81.2689C153.827 81.3665 154.01 81.4834 154.161 81.6195C154.312 81.7555 154.429 81.9182 154.509 82.1075C154.591 82.2968 154.631 82.5305 154.631 82.8084C154.631 83.1043 154.575 83.3749 154.464 83.6202C154.351 83.8658 154.195 84.0743 153.994 84.2457C153.792 84.4173 153.553 84.5505 153.276 84.6449C152.999 84.7395 152.693 84.787 152.358 84.787C151.737 84.787 151.219 84.6333 150.806 84.3256C150.392 84.018 150.137 83.5537 150.042 82.9325L151.066 82.8349C151.127 83.1543 151.271 83.4044 151.498 83.5846C151.724 83.7652 152.022 83.8553 152.391 83.8553C152.755 83.8553 153.036 83.7666 153.234 83.5891C153.433 83.4118 153.532 83.1781 153.532 82.8882C153.532 82.7462 153.506 82.6265 153.453 82.5288C153.399 82.4312 153.325 82.3485 153.23 82.2804C153.135 82.2126 153.018 82.1547 152.878 82.1075C152.738 82.0601 152.581 82.0099 152.408 81.9566L151.955 81.8236C151.686 81.7467 151.446 81.6536 151.233 81.544C151.021 81.4346 150.839 81.3059 150.688 81.1581C150.537 81.0102 150.422 80.8402 150.344 80.6479C150.266 80.4557 150.227 80.2322 150.227 79.978C150.227 79.7118 150.277 79.4664 150.378 79.2415C150.478 79.017 150.621 78.8244 150.806 78.6648C150.99 78.5052 151.214 78.3795 151.477 78.2876C151.74 78.1963 152.036 78.1503 152.366 78.1503ZM208.61 78.2755C209.276 78.2755 209.834 78.4358 210.283 78.7556C210.732 79.0755 211.05 79.5004 211.237 80.0299L210.161 80.248C210.014 79.9281 209.809 79.6763 209.546 79.493C209.284 79.3098 208.966 79.2182 208.593 79.2182C208.294 79.2182 208.027 79.2776 207.793 79.3965C207.558 79.5154 207.361 79.6791 207.2 79.8878C207.039 80.0964 206.916 80.3428 206.831 80.627C206.747 80.911 206.704 81.2153 206.704 81.5399C206.704 81.8703 206.748 82.1762 206.835 82.4574C206.923 82.7388 207.05 82.982 207.217 83.1879C207.383 83.3937 207.585 83.5544 207.822 83.6703C208.059 83.7864 208.331 83.8444 208.636 83.8444C209.031 83.8444 209.357 83.7454 209.614 83.5475C209.871 83.3497 210.07 83.1082 210.211 82.823L211.27 83.0064C211.174 83.2509 211.049 83.4809 210.893 83.6967C210.738 83.9125 210.55 84.1015 210.33 84.263C210.11 84.4244 209.854 84.5521 209.563 84.646C209.272 84.7399 208.949 84.787 208.593 84.787C208.141 84.787 207.731 84.7054 207.361 84.5424C206.991 84.3797 206.675 84.1541 206.413 83.8662C206.152 83.578 205.95 83.2349 205.808 82.8362C205.665 82.4377 205.594 82.0056 205.594 81.5399C205.594 81.0746 205.665 80.6425 205.808 80.2438C205.95 79.8453 206.153 79.5004 206.418 79.2094C206.682 78.9187 206.999 78.69 207.369 78.5244C207.739 78.3584 208.153 78.2755 208.61 78.2755ZM190.407 78.1503C191.028 78.1503 191.52 78.3055 191.884 78.616C192.247 78.9267 192.46 79.3422 192.521 79.8627L191.515 79.9514C191.453 79.6852 191.33 79.4782 191.146 79.3304C190.961 79.1825 190.704 79.1085 190.374 79.1085C190.066 79.1085 189.825 79.1839 189.652 79.3348C189.479 79.4857 189.392 79.6795 189.392 79.916C189.392 80.052 189.417 80.1657 189.468 80.2574C189.518 80.3493 189.591 80.4291 189.686 80.497C189.781 80.5651 189.897 80.6257 190.034 80.6788C190.171 80.7321 190.326 80.7886 190.499 80.8475L190.927 80.9895C191.196 81.0782 191.438 81.1713 191.653 81.2689C191.868 81.3665 192.052 81.4834 192.202 81.6195C192.353 81.7555 192.47 81.9182 192.551 82.1075C192.632 82.2968 192.672 82.5305 192.672 82.8084C192.672 83.1043 192.616 83.3749 192.505 83.6202C192.392 83.8658 192.236 84.0743 192.035 84.2457C191.833 84.4173 191.594 84.5505 191.317 84.6449C191.04 84.7395 190.734 84.787 190.399 84.787C189.778 84.787 189.261 84.6333 188.847 84.3256C188.433 84.018 188.178 83.5537 188.083 82.9325L189.107 82.8349C189.168 83.1543 189.312 83.4044 189.539 83.5846C189.765 83.7652 190.063 83.8553 190.432 83.8553C190.796 83.8553 191.077 83.7666 191.276 83.5891C191.474 83.4118 191.573 83.1781 191.573 82.8882C191.573 82.7462 191.547 82.6265 191.494 82.5288C191.441 82.4312 191.366 82.3485 191.271 82.2804C191.176 82.2126 191.059 82.1547 190.919 82.1075C190.779 82.0601 190.622 82.0099 190.449 81.9566L189.996 81.8236C189.728 81.7467 189.487 81.6536 189.275 81.544C189.062 81.4346 188.88 81.3059 188.73 81.1581C188.578 81.0102 188.464 80.8402 188.385 80.6479C188.307 80.4557 188.268 80.2322 188.268 79.978C188.268 79.7118 188.318 79.4664 188.419 79.2415C188.52 79.017 188.662 78.8244 188.847 78.6648C189.031 78.5052 189.255 78.3795 189.518 78.2876C189.781 78.1963 190.077 78.1503 190.407 78.1503ZM173.381 78.4008L175.524 84.3566V84.6618H174.469L173.857 82.8741H171.213L170.601 84.6618H169.606V84.3566L171.774 78.4008H173.381ZM178.814 78.4008C179.123 78.4008 179.416 78.4225 179.694 78.4661C179.972 78.5097 180.223 78.61 180.448 78.7669C180.925 79.0923 181.163 79.5836 181.163 80.2402C181.163 80.5251 181.123 80.7736 181.041 80.9858C180.96 81.1979 180.852 81.378 180.717 81.5263C180.582 81.6746 180.426 81.7951 180.25 81.8879C180.073 81.981 179.889 82.0507 179.698 82.0971L181.441 84.3564V84.6618H180.422L178.578 82.2027H177.896V84.6618H176.852V78.4008H178.814ZM186.696 78.4008V79.3599H183.808V80.9993H186.493V81.941H183.808V83.7025H186.755V84.6618H182.77V78.4008H186.696ZM196.485 78.4008C196.902 78.4008 197.251 78.4501 197.534 78.549C197.816 78.6478 198.044 78.7843 198.219 78.9589C198.392 79.1332 198.518 79.3381 198.595 79.5737C198.672 79.809 198.711 80.0634 198.711 80.3366C198.711 80.6623 198.658 80.9455 198.552 81.1867C198.447 81.428 198.294 81.627 198.094 81.7841C197.895 81.941 197.652 82.0587 197.367 82.1373C197.081 82.2158 196.759 82.255 196.4 82.255H195.312V84.6618H194.242V78.4008H196.485ZM202.727 78.4008L204.87 84.3566V84.6618H203.816L203.203 82.8741H200.559L199.947 84.6618H198.952V84.3566L201.12 78.4008H202.727ZM216.6 78.3252V79.2936H213.696V80.9489H216.397V81.8997H213.696V83.6783H216.66V84.6469H212.652V78.3252H216.6ZM136.514 75.145L137.261 75.924L133.125 80.2374C132.452 80.9394 132.452 82.0817 133.125 82.7837C133.798 83.4855 134.893 83.4854 135.566 82.7834L140.358 77.7843L141.105 78.5635L136.313 83.5625C135.788 84.1097 135.09 84.4114 134.345 84.4114C133.602 84.4114 132.903 84.1098 132.379 83.5627C131.294 82.4313 131.294 80.59 132.379 79.4584L136.514 75.145ZM158.962 79.2293C158.66 79.2293 158.39 79.2882 158.153 79.4057C157.915 79.5233 157.714 79.6863 157.549 79.8948C157.384 80.1035 157.258 80.3505 157.171 80.6352C157.085 80.9205 157.042 81.2305 157.042 81.5653C157.042 81.9004 157.086 82.2118 157.176 82.4999C157.265 82.7878 157.392 83.0375 157.557 83.2492C157.722 83.4606 157.923 83.6266 158.161 83.7473C158.399 83.8676 158.668 83.9277 158.97 83.9277C159.272 83.9277 159.542 83.8706 159.78 83.756C160.017 83.6414 160.219 83.4813 160.384 83.2754C160.548 83.0699 160.676 82.8214 160.765 82.5307C160.854 82.2397 160.899 81.9209 160.899 81.5742C160.899 81.2333 160.854 80.9189 160.765 80.631C160.676 80.3432 160.548 80.0963 160.384 79.8905C160.219 79.685 160.016 79.5233 159.775 79.4057C159.535 79.2882 159.264 79.2293 158.962 79.2293ZM172.693 79.3427H172.429L172.327 79.6391C172.293 79.738 172.255 79.8485 172.212 79.9704C172.17 80.0925 172.123 80.232 172.072 80.3891C172.021 80.5458 171.958 80.7291 171.885 80.9383L171.536 81.9324H173.551L173.22 80.9383C173.089 80.549 172.984 80.232 172.905 79.988C172.826 79.7438 172.755 79.5287 172.693 79.3427ZM202.039 79.3427H201.775L201.673 79.6391C201.639 79.738 201.601 79.8485 201.558 79.9704C201.516 80.0925 201.469 80.232 201.418 80.3891C201.367 80.5458 201.305 80.7291 201.231 80.9383L200.882 81.9324H202.897L202.566 80.9383C202.435 80.549 202.33 80.232 202.251 79.988C202.172 79.7438 202.101 79.5287 202.039 79.3427ZM140.708 75.2702C141.449 75.2702 142.144 75.572 142.666 76.12L143.038 76.51L142.294 77.2903L141.923 76.9003C141.599 76.5601 141.168 76.3733 140.708 76.3733C140.249 76.3733 139.818 76.5603 139.493 76.9005L134.724 81.9069L133.98 81.1266L138.75 76.1203C139.272 75.5722 139.968 75.2704 140.708 75.2702ZM196.357 79.3425H195.312V81.3132H196.34C196.528 81.3132 196.701 81.2974 196.858 81.2656C197.014 81.234 197.151 81.1808 197.268 81.1058C197.385 81.0309 197.477 80.9301 197.542 80.8032C197.608 80.6765 197.641 80.5209 197.641 80.3364C197.641 80.1463 197.608 79.9866 197.542 79.8569C197.477 79.7273 197.387 79.625 197.273 79.55C197.158 79.475 197.023 79.4217 196.866 79.3901C196.709 79.3585 196.539 79.3425 196.357 79.3425ZM178.814 79.3425H177.896V81.261H178.814C179.218 81.261 179.537 81.1845 179.77 81.032C180.003 80.8794 180.119 80.6302 180.119 80.2843C180.119 79.9329 180.001 79.6881 179.765 79.5498C179.53 79.4117 179.213 79.3425 178.814 79.3425Z" fill="white"/>
<circle cx="255" cy="189" r="50" fill="white"/>
<path d="M253.954 174.665L255.353 177.209C255.633 177.735 255.633 178.378 255.353 178.904L247.015 194.02L250.96 201.154C251.576 202.265 252.723 202.967 253.954 202.967C255.185 202.967 256.332 202.265 256.948 201.154L260.893 194.02L259.858 192.09L255.381 200.189C255.101 200.715 254.542 201.037 253.982 201.037C253.394 201.037 252.863 200.715 252.583 200.189L249.141 194.02L256.892 179.986L258.291 182.53C258.571 183.056 258.571 183.699 258.291 184.226L252.891 194.02L253.954 195.95L259.83 185.307L263.691 192.295C264.279 193.377 264.279 194.693 263.691 195.774L259.774 202.879C259.187 203.961 257.312 206.387 253.954 206.387C250.596 206.387 248.75 203.961 248.134 202.879L244.217 195.774C243.629 194.693 243.629 193.377 244.217 192.295L253.954 174.665Z" fill="#ED5153"/>
<circle cx="311.977" cy="50" r="50" fill="#FF7A59"/>
<path d="M315.461 44.2749V39.9931C316.007 39.7288 316.47 39.3092 316.795 38.7831C317.12 38.257 317.294 37.6461 317.297 37.0216V36.9217C317.295 36.0489 316.959 35.2125 316.363 34.5954C315.767 33.9782 314.959 33.6305 314.115 33.6281H314.019C313.176 33.6305 312.368 33.9782 311.772 34.5954C311.175 35.2125 310.84 36.0489 310.837 36.9217V37.0216C310.84 37.6461 311.014 38.257 311.339 38.7831C311.664 39.3092 312.127 39.7288 312.674 39.9931V44.2749C311.102 44.5237 309.622 45.1978 308.383 46.2292L297.025 37.0816C297.106 36.7798 297.149 36.4686 297.154 36.1555C297.155 35.4206 296.945 34.702 296.551 34.0905C296.157 33.479 295.597 33.0021 294.942 32.7201C294.286 32.438 293.565 32.3636 292.868 32.5061C292.172 32.6486 291.532 33.0017 291.029 33.5206C290.527 34.0396 290.184 34.7013 290.045 35.4218C289.906 36.1424 289.976 36.8895 290.247 37.5688C290.518 38.248 290.977 38.8289 291.567 39.2379C292.157 39.6468 292.85 39.8656 293.56 39.8665C294.184 39.8641 294.796 39.6918 295.334 39.3668L306.501 48.3657C305.496 49.9365 304.971 51.7848 304.996 53.6691C305.021 55.5535 305.594 57.3863 306.641 58.928L303.242 62.4458C302.97 62.3559 302.686 62.308 302.399 62.3037C301.816 62.3037 301.245 62.4828 300.76 62.8183C300.275 63.1539 299.897 63.6308 299.674 64.1888C299.451 64.7468 299.392 65.3608 299.506 65.9531C299.62 66.5455 299.901 67.0896 300.313 67.5166C300.726 67.9437 301.252 68.2345 301.824 68.3524C302.396 68.4702 302.989 68.4097 303.528 68.1786C304.067 67.9475 304.528 67.5561 304.852 67.0539C305.176 66.5517 305.349 65.9613 305.349 65.3574C305.345 65.061 305.299 64.7669 305.212 64.4846L308.574 61.0045C309.671 61.8722 310.946 62.4689 312.3 62.749C313.654 63.0291 315.052 62.9852 316.387 62.6207C317.723 62.2562 318.96 61.5807 320.004 60.6458C321.049 59.7109 321.874 58.5412 322.415 57.2262C322.956 55.9111 323.2 54.4854 323.128 53.0579C323.056 51.6303 322.67 50.2387 321.999 48.9893C321.328 47.7398 320.39 46.6656 319.257 45.8485C318.124 45.0315 316.825 44.4932 315.461 44.2749V44.2749ZM314.068 58.3595C313.148 58.3595 312.249 58.0771 311.484 57.548C310.719 57.019 310.123 56.267 309.771 55.3872C309.419 54.5074 309.327 53.5393 309.506 52.6054C309.686 51.6714 310.129 50.8135 310.779 50.1401C311.43 49.4667 312.259 49.0082 313.161 48.8224C314.063 48.6366 314.998 48.732 315.848 49.0964C316.698 49.4608 317.425 50.0779 317.936 50.8697C318.447 51.6615 318.72 52.5924 318.72 53.5447C318.72 54.8216 318.229 56.0463 317.357 56.9493C316.485 57.8522 315.302 58.3595 314.068 58.3595" fill="white"/>
</g>
<defs>
<clipPath id="clip0_126_8278">
<rect width="363" height="254" fill="white"/>
</clipPath>
</defs>
</svg>
